<svg width="24" height="14" viewBox="0 0 24 14" fill="none" xmlns="http://www.w3.org/2000/svg">
<g filter="url(#filter0_d_107_7477)">
<path d="M13.0965 7.99971L19.5443 1.55193C19.6717 1.40314 19.7383 1.21175 19.7308 1.016C19.7232 0.820254 19.642 0.634568 19.5035 0.49605C19.365 0.357532 19.1793 0.276384 18.9836 0.268823C18.7878 0.261263 18.5964 0.327845 18.4476 0.455266L11.9999 6.90304L5.55209 0.447488C5.40563 0.30103 5.20699 0.21875 4.99987 0.21875C4.79275 0.21875 4.59411 0.30103 4.44765 0.447488C4.30119 0.593946 4.21891 0.792587 4.21891 0.99971C4.21891 1.20683 4.30119 1.40547 4.44765 1.55193L10.9032 7.99971L4.44765 14.4475C4.36623 14.5172 4.3001 14.603 4.25342 14.6995C4.20673 14.796 4.1805 14.9011 4.17636 15.0082C4.17222 15.1153 4.19027 15.2222 4.22937 15.322C4.26848 15.4218 4.32779 15.5124 4.40359 15.5882C4.47939 15.664 4.57003 15.7233 4.66984 15.7624C4.76965 15.8015 4.87646 15.8196 4.98358 15.8154C5.09069 15.8113 5.1958 15.7851 5.29229 15.7384C5.38879 15.6917 5.47459 15.6256 5.54431 15.5442L11.9999 9.09638L18.4476 15.5442C18.5964 15.6716 18.7878 15.7382 18.9836 15.7306C19.1793 15.723 19.365 15.6419 19.5035 15.5034C19.642 15.3649 19.7232 15.1792 19.7308 14.9834C19.7383 14.7877 19.6717 14.5963 19.5443 14.4475L13.0965 7.99971Z" fill="black"/>
</g>
<defs>
<filter id="filter0_d_107_7477" x="0.175781" y="0.21875" width="23.5557" height="23.5977" filterUnits="userSpaceOnUse" color-interpolation-filters="sRGB">
<feFlood flood-opacity="0" result="BackgroundImageFix"/>
<feColorMatrix in="SourceAlpha" type="matrix" values="0 0 0 0 0 0 0 0 0 0 0 0 0 0 0 0 0 0 127 0" result="hardAlpha"/>
<feOffset dy="4"/>
<feGaussianBlur stdDeviation="2"/>
<feComposite in2="hardAlpha" operator="out"/>
<feColorMatrix type="matrix" values="0 0 0 0 0 0 0 0 0 0 0 0 0 0 0 0 0 0 0.25 0"/>
<feBlend mode="normal" in2="BackgroundImageFix" result="effect1_dropShadow_107_7477"/>
<feBlend mode="normal" in="SourceGraphic" in2="effect1_dropShadow_107_7477" result="shape"/>
</filter>
</defs>
</svg>
