<svg width="18" height="19" viewBox="0 0 18 19" fill="none" xmlns="http://www.w3.org/2000/svg">
<path d="M8.99996 7.70825C7.50419 7.70825 6.29163 8.92081 6.29163 10.4166C6.29163 11.9124 7.50419 13.1249 8.99996 13.1249C10.4957 13.1249 11.7083 11.9124 11.7083 10.4166C11.7083 8.92081 10.4957 7.70825 8.99996 7.70825Z" fill="#F59256"/>
<path fill-rule="evenodd" clip-rule="evenodd" d="M6.70829 0.208252C5.5577 0.208252 4.62496 1.14099 4.62496 2.29159V2.44039C4.62496 2.81845 4.31849 3.12492 3.94044 3.12492C1.78718 3.12492 0.0416261 4.87048 0.0416261 7.02373V10.866C0.0416208 12.2022 0.0416167 13.2497 0.121182 14.0865C0.202282 14.9395 0.370434 15.6379 0.747726 16.2536C1.14283 16.8983 1.68491 17.4404 2.32965 17.8355C2.94534 18.2128 3.64376 18.3809 4.49672 18.462C5.33352 18.5416 6.38097 18.5416 7.7171 18.5416H10.2828C11.6189 18.5416 12.6664 18.5416 13.5032 18.462C14.3562 18.3809 15.0546 18.2128 15.6703 17.8355C16.315 17.4404 16.8571 16.8983 17.2522 16.2536C17.6295 15.6379 17.7976 14.9395 17.8787 14.0865C17.9583 13.2497 17.9583 12.2022 17.9583 10.8661V7.02373C17.9583 4.87047 16.2127 3.12492 14.0595 3.12492C13.6814 3.12492 13.375 2.81845 13.375 2.4404V2.29159C13.375 1.14099 12.4422 0.208252 11.2916 0.208252H6.70829ZM5.04163 10.4166C5.04163 8.23046 6.81383 6.45825 8.99996 6.45825C11.1861 6.45825 12.9583 8.23046 12.9583 10.4166C12.9583 12.6027 11.1861 14.3749 8.99996 14.3749C6.81383 14.3749 5.04163 12.6027 5.04163 10.4166ZM14 7.91659C13.5397 7.91659 13.1666 7.54349 13.1666 7.08325C13.1666 6.62301 13.5397 6.24992 14 6.24992C14.4602 6.24992 14.8333 6.62301 14.8333 7.08325C14.8333 7.54349 14.4602 7.91659 14 7.91659Z" fill="#F59256"/>
</svg>
